<?xml version="1.0" encoding="utf-8"?>
<!-- Generator: Adobe Illustrator 27.5.0, SVG Export Plug-In . SVG Version: 6.00 Build 0)  -->
<svg version="1.1" xmlns="http://www.w3.org/2000/svg" xmlns:xlink="http://www.w3.org/1999/xlink" x="0px" y="0px"
	 viewBox="0 0 500 500" style="enable-background:new 0 0 500 500;" xml:space="preserve">
<g id="BACKGROUND">
	<rect transform="matrix(-1.836970e-16 1 -1 -1.836970e-16 500 5.684342e-14)" style="fill:#FFFFFF;" width="500" height="500"/>
</g>
<g id="OBJECTS">
	<g>
		<g>
			<radialGradient id="SVGID_1_" cx="272.1756" cy="189.3728" r="207.3745" gradientUnits="userSpaceOnUse">
				<stop  offset="0" style="stop-color:#E9AD2B"/>
				<stop  offset="0.1661" style="stop-color:#DE7C3F"/>
				<stop  offset="0.332" style="stop-color:#D5524F"/>
				<stop  offset="0.4814" style="stop-color:#CE345B"/>
				<stop  offset="0.6091" style="stop-color:#CA2262"/>
				<stop  offset="0.7" style="stop-color:#C91B65"/>
			</radialGradient>
			<path style="fill:url(#SVGID_1_);" d="M352.499,242.901c-8.125-6.785-20.96-17.486-20.654-30.129
				c0.811-4.516,1.239-9.165,1.239-13.91c0-37.662-26.708-65.311-62.583-72.477c5.24,14.364,8.109,29.905,8.109,46.133
				c0,1.548-0.037,3.087-0.088,4.623c-0.011,0.371-0.025,0.738-0.042,1.107c-0.063,1.521-0.145,3.037-0.256,4.544
				c-0.009,0.107-0.02,0.213-0.029,0.319c-0.11,1.424-0.248,2.839-0.401,4.25c-0.04,0.354-0.077,0.708-0.121,1.063
				c-0.173,1.48-0.365,2.959-0.588,4.424c-0.027,0.181-0.06,0.361-0.087,0.542c-0.206,1.331-0.435,2.656-0.682,3.973
				c-0.062,0.332-0.122,0.665-0.186,0.997c-0.281,1.444-0.582,2.883-0.908,4.312c-0.049,0.219-0.104,0.435-0.156,0.653
				c-0.299,1.277-0.615,2.544-0.95,3.805c-0.079,0.298-0.156,0.6-0.237,0.896c-0.384,1.409-0.788,2.809-1.216,4.198
				c-0.074,0.241-0.153,0.482-0.229,0.723c-0.387,1.234-0.793,2.464-1.218,3.682c-0.087,0.257-0.174,0.515-0.266,0.77
				c-0.483,1.371-0.99,2.733-1.519,4.084c-0.097,0.248-0.198,0.494-0.294,0.741c-0.482,1.212-0.982,2.416-1.499,3.611
				c-0.088,0.205-0.173,0.412-0.264,0.617c-0.583,1.333-1.19,2.653-1.817,3.961c-0.118,0.244-0.238,0.488-0.355,0.732
				c-0.586,1.204-1.186,2.399-1.804,3.581c-0.074,0.143-0.146,0.287-0.22,0.428c-0.684,1.293-1.39,2.573-2.114,3.84
				c-0.133,0.23-0.268,0.461-0.401,0.692c-0.7,1.209-1.415,2.411-2.152,3.596c-0.042,0.064-0.08,0.131-0.121,0.196
				c-0.782,1.252-1.586,2.486-2.407,3.707c-0.143,0.212-0.288,0.426-0.435,0.64c-1.66,2.442-3.397,4.823-5.211,7.139
				c-0.149,0.191-0.3,0.381-0.45,0.57c-1.837,2.321-3.75,4.576-5.735,6.765c-0.148,0.165-0.299,0.329-0.449,0.491
				c-2.011,2.194-4.094,4.317-6.245,6.365c-0.145,0.139-0.288,0.274-0.433,0.41c-2.18,2.06-4.431,4.044-6.747,5.946
				c-0.131,0.106-0.261,0.215-0.393,0.323c-1.174,0.954-2.36,1.893-3.566,2.808c-0.031,0.024-0.061,0.044-0.091,0.068
				c-1.18,0.892-2.377,1.764-3.586,2.618c-0.113,0.077-0.226,0.159-0.337,0.237c-1.245,0.871-2.505,1.723-3.78,2.548
				c-0.062,0.042-0.124,0.08-0.187,0.118c-1.244,0.804-2.5,1.584-3.773,2.348c-0.082,0.051-0.165,0.101-0.249,0.149
				c-1.312,0.781-2.64,1.54-3.982,2.277c-0.089,0.048-0.181,0.094-0.269,0.144c-1.317,0.718-2.645,1.414-3.986,2.08
				c-0.044,0.024-0.09,0.049-0.135,0.069c-1.376,0.686-2.766,1.348-4.17,1.984c-0.115,0.052-0.23,0.102-0.345,0.155
				c-1.395,0.626-2.798,1.233-4.216,1.809l0,0c-14.789,6.026-30.921,9.343-47.813,9.343c0,0,22.08,6.004,48.471,4.976
				c-0.087,6.364-0.678,12.777-1.876,19.254c0,0,7.119,6.424,47.021,6.424c39.9,0,46.026-6.424,46.026-6.424
				c-3.986-15.992,5.066-19.735,24.255-15.504c19.699,4.347,22.859-5.215,20.301-13.909c-2.557-8.692,0.603-8.257,3.609-12.46
				c3.006-4.199-5.865-10.433-5.865-10.433s10.406-3.795,7.671-7.1c-4.765-5.746,1.052-8.836,6.768-12.313
				C351.495,253.622,361.52,250.434,352.499,242.901z"/>
			<path style="opacity:0.2;fill:#FFFFFF;" d="M311.35,147.163c-10.783-10.353-24.908-17.592-40.849-20.777
				c5.24,14.364,8.109,29.905,8.109,46.133c0,1.548-0.037,3.087-0.088,4.623c-0.011,0.371-0.025,0.738-0.042,1.107
				c-0.063,1.521-0.145,3.037-0.256,4.544c-0.009,0.107-0.02,0.213-0.029,0.319c-0.11,1.424-0.248,2.839-0.401,4.25
				c-0.04,0.354-0.077,0.708-0.121,1.063c-0.173,1.48-0.365,2.959-0.588,4.424c-0.027,0.181-0.06,0.361-0.087,0.542
				c-0.206,1.331-0.435,2.656-0.682,3.973c-0.062,0.332-0.122,0.665-0.186,0.997c-0.281,1.444-0.582,2.883-0.908,4.312
				c-0.049,0.219-0.104,0.435-0.156,0.653c-0.299,1.277-0.615,2.544-0.95,3.805c-0.079,0.298-0.156,0.6-0.237,0.896
				c-0.384,1.409-0.788,2.809-1.216,4.198c-0.074,0.241-0.153,0.482-0.229,0.723c-0.387,1.234-0.793,2.464-1.218,3.682
				c-0.087,0.257-0.174,0.515-0.266,0.77c-0.483,1.371-0.99,2.733-1.519,4.084c-0.097,0.248-0.198,0.494-0.294,0.741
				c-0.482,1.212-0.982,2.416-1.499,3.611c-0.088,0.205-0.173,0.412-0.264,0.617c-0.583,1.333-1.19,2.653-1.817,3.961
				c-0.118,0.244-0.238,0.488-0.355,0.732c-0.586,1.204-1.186,2.399-1.804,3.581c-0.074,0.143-0.146,0.287-0.22,0.428
				c-0.684,1.293-1.39,2.573-2.114,3.84c-0.133,0.23-0.268,0.461-0.401,0.692c-0.7,1.209-1.415,2.411-2.152,3.596
				c-0.042,0.064-0.08,0.131-0.121,0.196c-0.782,1.252-1.586,2.486-2.407,3.707c-0.143,0.212-0.288,0.426-0.435,0.64
				c-1.66,2.442-3.397,4.823-5.211,7.139c-0.149,0.191-0.3,0.381-0.45,0.57c-1.837,2.321-3.75,4.576-5.735,6.765
				c-0.148,0.165-0.299,0.329-0.449,0.491c-2.011,2.194-4.094,4.317-6.245,6.365c-0.145,0.139-0.288,0.274-0.433,0.41
				c-2.18,2.06-4.431,4.044-6.747,5.946c-0.131,0.106-0.261,0.215-0.393,0.323c-1.174,0.954-2.36,1.893-3.566,2.808
				c-0.031,0.024-0.061,0.044-0.091,0.068c-1.18,0.892-2.377,1.764-3.586,2.618c-0.113,0.077-0.226,0.159-0.337,0.237
				c-1.245,0.871-2.505,1.723-3.78,2.548c-0.062,0.042-0.124,0.08-0.187,0.118c-1.244,0.804-2.5,1.584-3.773,2.348
				c-0.082,0.051-0.165,0.101-0.249,0.149c-1.312,0.781-2.64,1.54-3.982,2.277c-0.089,0.048-0.181,0.094-0.269,0.144
				c-1.317,0.718-2.645,1.414-3.986,2.08c-0.044,0.024-0.09,0.049-0.135,0.069c-1.376,0.686-2.766,1.348-4.17,1.984
				c-0.115,0.052-0.23,0.102-0.345,0.155c-1.395,0.626-2.798,1.233-4.216,1.809c-14.789,6.026-30.921,9.343-47.813,9.343
				c0,0,22.08,6.004,48.471,4.976C197.872,309.566,343.178,296.893,311.35,147.163z"/>
		</g>
		<g>
			
				<radialGradient id="SVGID_00000057850548044745367250000017199179841596737710_" cx="202.7495" cy="159.9118" r="118.9095" gradientUnits="userSpaceOnUse">
				<stop  offset="0.0096" style="stop-color:#8C0053"/>
				<stop  offset="0.2477" style="stop-color:#860557"/>
				<stop  offset="0.5696" style="stop-color:#751460"/>
				<stop  offset="0.9378" style="stop-color:#592C71"/>
				<stop  offset="1" style="stop-color:#533174"/>
			</radialGradient>
			<path style="fill:url(#SVGID_00000057850548044745367250000017199179841596737710_);" d="M229.729,116.108
				c2.504,11.148-4.506,22.214-15.655,24.716c-11.148,2.505-22.213-4.504-24.716-15.654c-2.504-11.15,4.506-22.216,15.655-24.717
				C216.161,97.949,227.227,104.958,229.729,116.108z M240.779,88.222c11.231,31.015,6.317,55.774-10.533,63.546
				c-18.612,8.583-97.955-6.267-97.955-6.267c15.763,3.013,28.565,7.955,38.976,14.104c-0.062,0.017-0.128,0.027-0.193,0.045
				c0.075-0.011,0.149-0.018,0.225-0.028c35.166,20.784,42.905,55.428,44.077,76.76c0.074,8.029-1.44,24.327-14.366,28.384
				c-8.093,2.209-25.27,4.739-40.736-7.182c0,0,23.554,9.833,41.479,2.036c-1.132-1.334-2.214-2.716-3.288-4.084
				c-4.02-5.093-8.938-11.124-15.296-12.906c-8.729-2.453-25.992,1.185-34.796-0.042c-5.793-0.805-14.697-3.982-16.229-10.423
				c6.774,30.169,36.653,49.536,66.824,42.762c3.081-0.69,6.042-1.632,8.876-2.786c10.253-4.025,19.483-10.857,26.319-20.43
				C289.101,180.6,240.779,88.222,240.779,88.222z"/>
			<g style="opacity:0.3;">
				<path style="fill:#FFFFFF;" d="M230.246,151.768c-18.612,8.583-97.955-6.267-97.955-6.267
					c15.763,3.013,28.565,7.955,38.976,14.104c-0.062,0.017-0.128,0.027-0.193,0.045c0.075-0.011,0.149-0.018,0.225-0.028
					c13.6,8.04,23.085,18.153,29.687,28.769c51.546,23.424,54.531-34.42,52.751-65.121c-5.692-21.152-12.957-35.047-12.957-35.047
					C252.011,119.237,247.096,143.996,230.246,151.768z"/>
				<path style="fill:#FFFFFF;" d="M214.073,140.825c11.15-2.502,18.159-13.568,15.655-24.716
					c-2.501-11.15-13.568-18.159-24.716-15.655c-11.149,2.501-18.159,13.567-15.655,24.717
					C191.86,136.32,202.925,143.33,214.073,140.825z"/>
			</g>
		</g>
		<g>
			
				<linearGradient id="SVGID_00000057853564858621725140000004796752908319221400_" gradientUnits="userSpaceOnUse" x1="177.8088" y1="230.2617" x2="177.8088" y2="192.0181">
				<stop  offset="0.1667" style="stop-color:#4674B5"/>
				<stop  offset="0.3306" style="stop-color:#4878B5"/>
				<stop  offset="0.4942" style="stop-color:#4F84B6"/>
				<stop  offset="0.6576" style="stop-color:#5998B6"/>
				<stop  offset="0.821" style="stop-color:#68B4B7"/>
				<stop  offset="0.9831" style="stop-color:#7CD8B9"/>
				<stop  offset="1" style="stop-color:#7EDCB9"/>
			</linearGradient>
			<path style="fill:url(#SVGID_00000057853564858621725140000004796752908319221400_);" d="M193.63,203.015h-7.697v-7.699
				c0-1.819-1.475-3.298-3.298-3.298h-9.653c-1.823,0-3.3,1.479-3.3,3.298v7.699h-7.7c-1.82,0-3.296,1.478-3.296,3.299v9.654
				c0,1.82,1.477,3.298,3.296,3.298h7.7v7.697c0,1.82,1.477,3.299,3.3,3.299h9.653c1.824,0,3.298-1.479,3.298-3.299v-7.697h7.697
				c1.824,0,3.301-1.477,3.301-3.298v-9.654C196.932,204.493,195.454,203.015,193.63,203.015z"/>
			
				<linearGradient id="SVGID_00000178927731336430670600000010643431188403257482_" gradientUnits="userSpaceOnUse" x1="151.6902" y1="193.1621" x2="151.6902" y2="170.3506">
				<stop  offset="0.1667" style="stop-color:#4674B5"/>
				<stop  offset="0.3306" style="stop-color:#4878B5"/>
				<stop  offset="0.4942" style="stop-color:#4F84B6"/>
				<stop  offset="0.6576" style="stop-color:#5998B6"/>
				<stop  offset="0.821" style="stop-color:#68B4B7"/>
				<stop  offset="0.9831" style="stop-color:#7CD8B9"/>
				<stop  offset="1" style="stop-color:#7EDCB9"/>
			</linearGradient>
			<path style="fill:url(#SVGID_00000178927731336430670600000010643431188403257482_);" d="M161.127,176.912h-4.592v-4.595
				c0-1.084-0.879-1.966-1.967-1.966h-5.755c-1.088,0-1.969,0.882-1.969,1.966v4.595h-4.592c-1.087,0-1.967,0.88-1.967,1.966v5.76
				c0,1.085,0.879,1.968,1.967,1.968h4.592v4.587c0,1.089,0.881,1.969,1.969,1.969h5.755c1.088,0,1.967-0.88,1.967-1.969v-4.587
				h4.592c1.088,0,1.968-0.883,1.968-1.968v-5.76C163.095,177.792,162.215,176.912,161.127,176.912z"/>
		</g>
	</g>
	<g>
		<g>
			
				<text transform="matrix(1 0 0 1 134.7744 386.3506)" style="fill:#79165D; font-family:'Montserrat-Black'; font-size:43.9615px; letter-spacing:6;">mental</text>
		</g>
		<g>
			
				<text transform="matrix(1 0 0 1 165.7998 412.9248)" style="fill:#C91B65; font-family:'Montserrat-Medium'; font-size:22.1874px; letter-spacing:13;">health</text>
		</g>
	</g>
</g>
</svg>
