<?xml version="1.0" encoding="utf-8"?>
<!-- Generator: Adobe Illustrator 27.5.0, SVG Export Plug-In . SVG Version: 6.00 Build 0)  -->
<svg version="1.1" xmlns="http://www.w3.org/2000/svg" xmlns:xlink="http://www.w3.org/1999/xlink" x="0px" y="0px"
	 viewBox="0 0 500 500" style="enable-background:new 0 0 500 500;" xml:space="preserve">
<g id="BACKGROUND">
	<g>
		<rect style="fill:#FFFFFF;" width="500" height="500"/>
	</g>
</g>
<g id="OBJECTS">
	<g>
		<path id="SVGID_x5F_1_x5F_" style="fill:none;" d="M411.156,350.644c49.66-86.756,19.588-197.343-67.168-247.002
			c-86.758-49.66-197.343-19.588-247.003,67.168c-49.658,86.756-19.586,197.342,67.169,247.004
			C250.91,467.472,361.496,437.399,411.156,350.644z"/>
		<text style="fill:#7FC9C4; font-family:'Cabin-Bold'; font-size:24px;">		<textPath  xlink:href="#SVGID_x5F_1_x5F_" startOffset="27.3437%">
TAKE CARE OF YOUR MENTAL HEALTH 		</textPath>
</text>
		<g>
			<g>
				<path style="fill:#FFFFFF;" d="M231.546,317.561c0,0-1.825,35.768,19.344,46.352c21.169,10.584,71.901,30.295,83.945,19.709
					c12.044-10.584,4.744-22.264,1.825-25.184c1.096-6.57,9.854-5.109,6.569-14.963c7.3-4.381,5.841-12.773,4.015-17.156
					c-1.824-4.379,6.205-8.758,12.409-13.504c6.206-4.742,9.49-8.029,0-18.977c-9.488-10.951-16.06-26.281-13.139-34.674
					c2.92-8.396,7.3-8.396,1.824-31.39c-5.475-22.993-12.774-42.702-38.686-53.651c-25.914-10.95-98.912-31.023-138.329,22.628
					c-39.418,53.654,11.679,120.809,15.694,126.649c0,22.994,0,65.699,0,65.699h-1.691c-49.357-22.502-83.665-83.092-83.665-140.876
					c0-78.9,63.962-142.862,142.863-142.862c31.253,0,60.163,10.036,83.683,27.062"/>
			</g>
			<g>
				<path style="fill:#7FC9C4;" d="M256.099,404.245c-16.523,0-32.737-2.75-48.188-8.176c-2.114-0.742-3.226-3.057-2.483-5.172
					c0.743-2.113,3.058-3.223,5.171-2.482c14.586,5.121,29.895,7.719,45.501,7.719c75.702,0,137.29-61.588,137.29-137.291
					c0-27.514-8.107-54.056-23.444-76.759c-1.254-1.855-0.766-4.377,1.09-5.631c1.856-1.253,4.378-0.767,5.632,1.09
					c16.248,24.049,24.835,52.161,24.835,81.3C401.501,339.019,336.274,404.245,256.099,404.245z"/>
			</g>
			<g>
				<path style="fill:#7FC9C4;" d="M190.283,119.075c-0.579,0-1.168-0.125-1.727-0.388c-2.026-0.955-2.895-3.372-1.94-5.398
					c9.868-20.939,37.072-30.133,38.224-30.515c2.126-0.706,4.421,0.451,5.125,2.578c0.702,2.127-0.451,4.42-2.576,5.123
					c-0.309,0.104-25.076,8.533-33.435,26.271C193.263,118.215,191.804,119.075,190.283,119.075z"/>
			</g>
			<g>
				<path style="fill:#CAF9F4;" d="M336.661,358.439c2.919,2.92,10.219,14.6-1.825,25.184
					c-12.044,10.586-62.776-9.125-83.945-19.709c-21.169-10.584-19.344-46.352-19.344-46.352s9.666,38.34,51.127,47.805
					C324.135,374.831,336.661,358.439,336.661,358.439z"/>
			</g>
			<g>
				<path style="fill:#7FC9C4;" d="M187.019,393.157h-1.691c-0.581,0-1.155-0.125-1.683-0.365
					c-24.367-11.109-46.443-32.01-62.159-58.85c-15.399-26.297-23.88-56.738-23.88-85.718c0-81.011,65.908-146.919,146.919-146.919
					c31.148,0,60.907,9.625,86.06,27.833c1.815,1.313,2.221,3.849,0.908,5.663c-1.314,1.815-3.848,2.223-5.665,0.907
					c-23.76-17.199-51.874-26.291-81.304-26.291c-76.539,0-138.807,62.268-138.807,138.807c0,56.341,32.242,112.378,77.244,135.235
					v-58.771c-16.395-23.053-50.574-81.791-14.907-130.338c46.024-62.644,133.367-28.107,143.177-23.963
					c28.331,11.972,35.815,34.451,41.054,56.448c4.443,18.661,2.816,23.428-0.208,29.659c-0.617,1.273-1.201,2.477-1.731,4.002
					c-2.246,6.455,3.305,20.219,12.373,30.684c5.187,5.984,7.311,10.496,6.888,14.631c-0.5,4.885-4.376,7.846-7.49,10.227
					c-1.242,0.951-2.542,1.877-3.798,2.773c-2.496,1.781-6.614,4.719-7.237,6.174c2.501,6.182,2.888,14.67-3.261,20.139
					c1.068,6.469-2.573,9.367-4.861,11.188c-0.749,0.596-1.267,1.025-1.624,1.426c2.137,2.984,4.422,7.775,4.242,13.348
					c-0.186,5.801-2.899,11.045-8.064,15.584c-6.51,5.719-20.367,5.369-42.367-1.07c-17.718-5.186-35.891-12.969-46.07-18.057
					c-23.273-11.639-21.661-48.619-21.581-50.188c0.114-2.236,2.032-3.959,4.258-3.844c2.236,0.115,3.957,2.018,3.844,4.254l0,0
					c-0.017,0.332-1.419,33.258,17.107,42.522c9.878,4.939,27.518,12.494,44.72,17.527c26.363,7.715,33.251,4.064,34.733,2.762
					c3.414-3,5.2-6.279,5.313-9.75c0.148-4.621-2.676-8.518-3.678-9.518c-0.927-0.928-1.349-2.244-1.133-3.535
					c0.698-4.188,3.436-6.367,5.249-7.809c2.149-1.711,2.536-2.018,1.474-5.207c-0.602-1.803,0.131-3.781,1.761-4.76
					c5.498-3.299,3.194-10.109,2.357-12.117c-2.718-6.525,4.096-11.385,10.107-15.672c1.202-0.857,2.445-1.744,3.582-2.613
					c2.216-1.695,4.215-3.32,4.347-4.611c0.096-0.928-0.421-3.268-4.947-8.488c-9.7-11.195-17.592-28.068-13.905-38.664
					c0.686-1.975,1.434-3.516,2.095-4.876c2.098-4.324,3.614-7.447-0.385-24.239c-4.954-20.806-11.459-40.352-36.32-50.855
					c-9.204-3.889-91.143-36.334-133.481,21.294c-32.556,44.312-0.347,99.294,15.012,120.878c0.328,0.461,0.583,0.82,0.756,1.07
					c0.465,0.678,0.714,1.479,0.714,2.299v65.699C191.075,391.341,189.259,393.157,187.019,393.157z"/>
			</g>
			<g>
				<path style="fill:#7FC9C4;" d="M312.53,158.026c-25.812-16.41-34.112-49.561-34.112-49.561s33.538-6.543,59.351,9.871
					c25.811,16.413,34.112,49.563,34.112,49.563S338.339,174.441,312.53,158.026z"/>
				<path style="fill:#FFFFFF;" d="M355.686,173.242c-12.222,0-30.008-2.046-45.333-11.794
					c-26.867-17.081-35.515-50.579-35.87-51.997c-0.27-1.079-0.085-2.223,0.513-3.161c0.597-0.939,1.554-1.592,2.646-1.805
					c0.285-0.056,7.098-1.363,16.974-1.363c12.219,0,30.003,2.046,45.329,11.792c26.868,17.085,35.516,50.583,35.87,52
					c0.27,1.08,0.085,2.224-0.513,3.162c-0.597,0.939-1.553,1.592-2.646,1.805C372.372,171.936,365.559,173.242,355.686,173.242z
					 M283.702,111.818c3.173,9.221,12.288,30.886,31.004,42.785c13.681,8.701,29.836,10.527,40.98,10.527
					c4.427,0,8.203-0.289,10.91-0.584c-3.172-9.221-12.288-30.886-31.005-42.787c-13.679-8.699-29.833-10.525-40.976-10.525
					C290.186,111.234,286.41,111.523,283.702,111.818z"/>
			</g>
			<g>
				<g>
					<path style="fill:#CAF9F4;" d="M297.121,123.272c14.665,1.519,35.185,6.956,58.861,34.72
						C355.982,157.992,319.069,127.915,297.121,123.272z"/>
				</g>
				<g>
					<path style="fill:#CAF9F4;" d="M316.864,131.188c0,0,16.603,14.079,18.071,24.917c-1.368-14.511-9.918-21.815-9.918-21.815
						L316.864,131.188z"/>
				</g>
			</g>
			<g>
				<g>
					<path style="fill:#CAF9F4;" d="M190.116,291.423c-0.076-2.434,0.194-4.115,0.624-4.111c-0.991-1.209-1.861-2.52-2.624-3.895
						C188.357,286.239,189.046,288.929,190.116,291.423z"/>
				</g>
				<g>
					<path style="fill:#CAF9F4;" d="M184.873,272.085c-1.819-1.773-3.382-3.811-4.624-6.051c0.517,6,3.062,11.42,6.951,15.568
						C185.865,278.677,185.039,275.47,184.873,272.085z"/>
				</g>
				<g>
					<path style="fill:#CAF9F4;" d="M317.227,218.814c-0.478-3.077-1.495-5.975-2.949-8.598c0.065,0.745,0.105,1.496,0.105,2.257
						c0,1.044-0.069,2.069-0.188,3.081C315.296,216.551,316.308,217.645,317.227,218.814z"/>
				</g>
				<g>
					<path style="fill:#CAF9F4;" d="M322.689,232.656c0.064,0.742,0.104,1.49,0.104,2.248c0,14.402-11.676,26.077-26.076,26.077
						c-0.47,0-0.936-0.014-1.4-0.039c-3.724,9.853-13.24,16.861-24.396,16.861c-4.731,0-9.164-1.266-12.989-3.469
						c-4.229,8.691-13.144,14.686-23.461,14.686c-1.546,0-3.058-0.143-4.53-0.4c-4.071,4.344-9.61,7.287-15.827,8.049
						c0.001,0.273-0.062,0.936-0.096,1.248c0.023,0.459-0.864,11.564-12.615,11.564c-3.633,0-6.187-2.141-7.937-5.092
						c0.747,6.525,3.668,15.457,11.092,15.457c11.751,0,12.639-11.105,12.615-11.565c0.034-0.313,0.097-0.975,0.096-1.248
						c6.217-0.76,11.756-3.705,15.828-8.049c1.471,0.258,2.984,0.4,4.53,0.4c10.315,0,19.23-5.994,23.46-14.686
						c3.825,2.203,8.259,3.469,12.989,3.469c11.156,0,20.672-7.008,24.396-16.861c0.463,0.025,0.931,0.039,1.399,0.039
						c14.401,0,26.076-11.674,26.076-26.077C325.947,240.691,324.76,236.395,322.689,232.656z"/>
				</g>
			</g>
			<g>
				<g>
					<g>
						<path style="fill:#7FC9C4;" d="M199.149,311.284c-5.492,0-9.997-3.389-12.683-9.541c-2.481-5.684-2.674-11.67-2.674-13.369
							c0-0.945,0.059-1.799,0.176-2.563c-2.961-4.219-4.766-9.066-5.282-14.207c-5.174-5.584-8.005-12.785-8.005-20.448
							c0-10.576,5.381-20.13,14.232-25.602c-0.141-1.184-0.212-2.373-0.212-3.559c0-16.614,13.517-30.132,30.132-30.132
							c2.13,0,4.245,0.225,6.317,0.67c5.309-9.368,15.246-15.25,26.209-15.25c7.961,0,15.419,3.069,21.014,8.538
							c5.117-3.721,11.261-5.733,17.68-5.733c16.615,0,30.133,13.517,30.133,30.132c0,0.5-0.014,1.002-0.04,1.509
							c5.394,5.596,8.451,13.109,8.451,20.921c0,16.196-12.845,29.45-28.883,30.108c-5.021,10.184-15.553,16.848-27.046,16.848
							c-3.901,0-7.763-0.762-11.354-2.223c-5.543,8.379-14.836,13.439-25.095,13.439c-1.024,0-2.061-0.055-3.1-0.164
							c-3.826,3.535-8.508,6.021-13.555,7.211c-0.455,2.338-1.628,5.815-4.366,8.668
							C208.22,309.644,204.054,311.284,199.149,311.284z M191.941,287.185c-0.238,2.428,0.395,10.043,3.508,13.984
							c1.402,1.775,2.714,2.002,3.7,2.002c7.289,0,8.381-5.891,8.541-7.363c0-0.133,0.006-0.27,0.018-0.41
							c0.011-0.127,0.026-0.254,0.046-0.375c0.022-0.209,0.046-0.471,0.051-0.637c-0.013-2.059,1.519-3.746,3.563-3.996
							c5.092-0.623,9.836-3.037,13.36-6.797c0.936-0.998,2.312-1.457,3.657-1.221c1.289,0.225,2.578,0.338,3.832,0.338
							c8.498,0,16.09-4.752,19.813-12.402c0.493-1.012,1.383-1.773,2.458-2.103c1.077-0.33,2.239-0.197,3.214,0.363
							c3.326,1.914,7.118,2.928,10.965,2.928c9.104,0,17.383-5.723,20.603-14.24c0.624-1.652,2.234-2.721,4.01-2.615
							c0.392,0.02,0.787,0.031,1.184,0.031c12.142,0,22.021-9.878,22.021-22.02c0-6.212-2.647-12.168-7.263-16.34
							c-0.975-0.881-1.462-2.179-1.309-3.482c0.108-0.915,0.16-1.768,0.16-2.607c0-12.142-9.879-22.021-22.021-22.021
							c-5.722,0-11.146,2.19-15.273,6.168c-0.828,0.798-1.957,1.206-3.106,1.124c-1.148-0.083-2.207-0.649-2.913-1.559
							c-4.209-5.426-10.552-8.537-17.4-8.537c-8.898,0-16.872,5.302-20.315,13.508c-0.825,1.97-3.035,2.96-5.057,2.268
							c-2.31-0.793-4.717-1.195-7.154-1.195c-12.142,0-22.02,9.878-22.02,22.02c0,1.611,0.181,3.236,0.537,4.83
							c0.411,1.832-0.491,3.707-2.179,4.53c-7.636,3.726-12.379,11.314-12.379,19.8c0,5.985,2.365,11.585,6.659,15.77
							c0.734,0.715,1.17,1.682,1.22,2.705c0.231,4.738,1.944,9.184,4.953,12.855c0.994,1.213,1.2,2.889,0.529,4.307
							C192.089,286.929,192.018,287.058,191.941,287.185z M188.984,289.083c-0.16,0.02-0.323,0.031-0.487,0.031
							C188.665,289.114,188.827,289.103,188.984,289.083z"/>
					</g>
					<g>
						<path style="fill:#7FC9C4;" d="M236.88,207.016c-6.913,0-13.17-3.78-16.329-6.702c-1.646-1.521-1.746-4.087-0.226-5.732
							c1.518-1.642,4.078-1.745,5.722-0.233c0.4,0.363,9.067,8.081,16.713,2.62c1.821-1.303,4.355-0.88,5.658,0.942
							c1.302,1.823,0.879,4.356-0.943,5.658C243.985,206.063,240.351,207.016,236.88,207.016z"/>
					</g>
					<g>
						<path style="fill:#7FC9C4;" d="M279.13,207.908c-4.91,0-8.752-1.339-11.472-4.01c-5.156-5.062-3.836-12.435-3.669-13.259
							c0.446-2.195,2.591-3.611,4.782-3.168c2.186,0.444,3.601,2.567,3.174,4.752c-0.02,0.119-0.634,3.929,1.421,5.911
							c1.929,1.862,6.204,2.176,12.032,0.878c2.192-0.484,4.354,0.894,4.84,3.08c0.485,2.186-0.893,4.354-3.079,4.84
							C284.227,207.584,281.55,207.908,279.13,207.908z"/>
					</g>
					<g>
						<path style="fill:#7FC9C4;" d="M292.291,261.71c-1.186,0-2.362-0.518-3.162-1.512c-0.087-0.105-3.105-3.693-7.313-4.043
							c-2.638-0.225-5.398,0.906-8.189,3.352c-1.686,1.475-4.248,1.305-5.724-0.383c-1.476-1.685-1.305-4.248,0.382-5.724
							c4.547-3.979,9.375-5.767,14.318-5.319c7.6,0.686,12.344,6.4,12.859,7.049c1.395,1.754,1.103,4.305-0.651,5.699
							C294.066,261.423,293.176,261.71,292.291,261.71z"/>
					</g>
					<g>
						<path style="fill:#7FC9C4;" d="M201.853,247.589c-2.24,0-4.056-1.815-4.056-4.056c0-10.823-9.19-11.526-10.238-11.571
							c-2.238-0.096-3.975-1.987-3.88-4.225c0.095-2.238,1.991-3.961,4.225-3.88c6.228,0.266,18.006,4.719,18.006,19.676
							C205.909,245.773,204.093,247.589,201.853,247.589z"/>
					</g>
					<g>
						<path style="fill:#7FC9C4;" d="M182.627,272.228c-1.281,0-2.541-0.605-3.33-1.736c-1.279-1.832-0.833-4.355,0.994-5.639
							c1.397-0.992,5.134-4.375,5.689-8.092c0.283-1.895-0.293-3.741-1.76-5.642c-1.368-1.774-1.04-4.321,0.734-5.689
							c1.773-1.368,4.32-1.04,5.689,0.733c2.821,3.657,3.98,7.758,3.352,11.855c-1.197,7.799-8.249,12.92-9.05,13.479
							C184.238,271.989,183.428,272.228,182.627,272.228z"/>
					</g>
					<g>
						<path style="fill:#7FC9C4;" d="M225.29,277.935c-1.124,0-2.242-0.465-3.045-1.375c-1.48-1.68-1.318-4.242,0.361-5.725
							c20.473-18.044,35.911-1.66,36.063-1.492c1.513,1.65,1.4,4.217-0.252,5.73c-1.644,1.506-4.196,1.402-5.712-0.232
							c-1.058-1.117-10.593-10.385-24.735,2.08C227.199,277.601,226.243,277.935,225.29,277.935z"/>
					</g>
					<g>
						<path style="fill:#7FC9C4;" d="M297.393,237.073c-2.174,0.001-3.973-1.722-4.051-3.911
							c-0.574-16.058,11.417-22.619,17.838-23.845c2.206-0.419,4.326,1.023,4.745,3.224c0.419,2.192-1.014,4.311-3.202,4.74
							c-1.226,0.253-11.732,2.801-11.275,15.592c0.08,2.238-1.67,4.118-3.908,4.198
							C297.491,237.072,297.441,237.073,297.393,237.073z"/>
					</g>
					<g>
						<path style="fill:#7FC9C4;" d="M211.865,298.472c-0.269,0-0.541-0.025-0.813-0.082c-2.191-0.445-3.608-2.58-3.168-4.773
							c0.13-0.662,2.885-15.459-8.673-19.852c-2.094-0.795-3.147-3.139-2.351-5.232c0.796-2.094,3.138-3.146,5.232-2.35
							c14.43,5.482,15.299,21.395,13.743,29.041C215.444,297.147,213.753,298.472,211.865,298.472z"/>
					</g>
					<g>
						<path style="fill:#7FC9C4;" d="M226.559,244.49c-16.021,0-30.257-9.016-31.112-9.567c-1.882-1.214-2.424-3.725-1.21-5.606
							c1.213-1.881,3.721-2.423,5.604-1.212c0.306,0.195,25.845,16.268,43.421,2.887c1.781-1.357,4.327-1.013,5.685,0.771
							c1.356,1.782,1.011,4.327-0.771,5.685C241.313,242.67,233.755,244.49,226.559,244.49z"/>
					</g>
					<g>
						<path style="fill:#7FC9C4;" d="M215.368,242.782c-2.025,0-3.777-1.516-4.022-3.577c-0.451-3.787,0.574-7.295,2.962-10.145
							c6.024-7.187,18.913-8.121,20.363-8.203c2.244-0.123,4.153,1.581,4.281,3.817c0.127,2.234-1.579,4.149-3.813,4.28l0,0
							c-2.78,0.168-11.429,1.505-14.621,5.324c-0.95,1.137-1.306,2.397-1.118,3.967c0.265,2.225-1.324,4.243-3.548,4.508
							C215.69,242.773,215.528,242.782,215.368,242.782z"/>
					</g>
					<g>
						<path style="fill:#7FC9C4;" d="M248.568,252.102c-0.174,0-0.349-0.002-0.523-0.006c-2.239-0.043-4.02-1.893-3.979-4.133
							c0.042-2.239,1.889-4.032,4.132-3.979c7.022,0.141,13.737-3.629,16.29-9.146c2.699-5.837,0.609-13.106-5.888-20.47
							c-1.482-1.68-1.322-4.243,0.357-5.725c1.68-1.482,4.242-1.321,5.725,0.357c11.814,13.389,9.561,24.068,7.168,29.243
							C267.994,246.579,258.683,252.102,248.568,252.102z"/>
					</g>
					<g>
						<path style="fill:#7FC9C4;" d="M270.931,236.231c-0.59,0-1.19-0.024-1.797-0.072c-2.233-0.176-3.9-2.129-3.724-4.362
							c0.177-2.233,2.131-3.903,4.363-3.724c4.648,0.364,7.16-1.482,8.445-3.098c1.729-2.175,1.993-4.761,1.488-6.36
							c-0.674-2.136,0.511-4.414,2.645-5.089c2.141-0.677,4.415,0.511,5.09,2.646c1.428,4.52,0.326,9.827-2.875,13.851
							C281.355,234.063,276.56,236.231,270.931,236.231z"/>
					</g>
					<g>
						<path style="fill:#7FC9C4;" d="M213.267,265.616c-2.171,0-3.97-1.719-4.051-3.906c-0.181-4.875,2.149-9.05,6.232-11.169
							c4.683-2.429,10.69-1.729,15.3,1.783c1.782,1.357,2.127,3.903,0.77,5.685c-1.357,1.783-3.902,2.125-5.684,0.77
							c-2.42-1.844-5.085-1.85-6.651-1.035c-1.3,0.674-1.925,1.908-1.86,3.668c0.083,2.238-1.664,4.119-3.903,4.203
							C213.369,265.616,213.317,265.616,213.267,265.616z"/>
					</g>
					<g>
						<path style="fill:#7FC9C4;" d="M212.932,221.844c-2.796,0-5.673-0.81-8.24-2.42c-1.898-1.189-2.471-3.693-1.281-5.591
							c1.189-1.898,3.692-2.473,5.591-1.281c2.575,1.615,5.229,1.378,6.717,0.427c1.233-0.789,1.745-2.074,1.521-3.821
							c-0.286-2.222,1.284-4.254,3.506-4.54c2.218-0.285,4.255,1.284,4.54,3.506c0.623,4.84-1.319,9.209-5.193,11.688
							C217.971,221.169,215.485,221.844,212.932,221.844z"/>
					</g>
				</g>
			</g>
			<g>
				<path style="fill:#7FC9C4;" d="M151.082,143.934c-1.297,0-2.571-0.62-3.356-1.772c-1.26-1.851-0.785-4.371,1.064-5.633
					c1.614-1.102,39.998-26.825,79.919-13.102c2.118,0.727,3.245,3.035,2.518,5.154c-0.729,2.118-3.037,3.247-5.154,2.517
					c-36.019-12.38-72.35,11.888-72.712,12.134C152.662,143.706,151.868,143.934,151.082,143.934z"/>
			</g>
			<g>
				<path style="fill:#7FC9C4;" d="M232.735,56.688c21.117-14.313,49.238-9.672,49.238-9.672s-6.113,27.835-27.232,42.146
					c-21.12,14.312-49.241,9.672-49.241,9.672S211.614,70.996,232.735,56.688z"/>
				<path style="fill:#FFFFFF;" d="M216.415,103.608c-6.819,0-11.386-0.74-11.577-0.771c-1.098-0.182-2.073-0.806-2.698-1.727
					c-0.624-0.922-0.843-2.06-0.604-3.146c0.264-1.202,6.717-29.592,28.922-44.635c13.522-9.164,29.541-11.088,40.598-11.088
					c6.818,0,11.385,0.74,11.575,0.772c1.099,0.181,2.074,0.805,2.698,1.727c0.624,0.921,0.842,2.058,0.604,3.146
					c-0.264,1.201-6.716,29.588-28.919,44.634C243.492,101.686,227.472,103.608,216.415,103.608z M210.713,95.304
					c1.581,0.108,3.514,0.192,5.702,0.192c9.921,0,24.229-1.681,36.049-9.69c14.692-9.956,21.695-27.191,24.294-35.258
					c-1.581-0.108-3.514-0.193-5.701-0.193c-9.921,0-24.229,1.682-36.047,9.691C220.317,70,213.313,87.235,210.713,95.304z"/>
			</g>
			<g>
				<path style="fill:#7FC9C4;" d="M320.37,131.171c-20.705-2.054-35.907-19.641-35.907-19.641s18.361-14.255,39.068-12.198
					c20.705,2.055,35.907,19.642,35.907,19.642S341.075,133.229,320.37,131.171z"/>
				<path style="fill:#FFFFFF;" d="M324.515,135.43c-1.527,0-3.057-0.075-4.546-0.223c-22.061-2.188-37.91-20.257-38.574-21.024
					c-0.729-0.842-1.077-1.945-0.968-3.053c0.109-1.107,0.67-2.121,1.549-2.804c0.697-0.541,17.303-13.254,37.414-13.254
					c1.526,0,3.055,0.075,4.542,0.223c22.062,2.19,37.912,20.258,38.576,21.026c0.728,0.842,1.077,1.945,0.967,3.054
					c-0.109,1.106-0.67,2.12-1.548,2.803C361.229,122.719,344.622,135.43,324.515,135.43z M290.8,112.152
					c5.28,4.884,16.47,13.643,29.972,14.983c1.223,0.121,2.482,0.183,3.743,0.183c12.053,0,23.009-5.568,28.581-8.973
					c-5.283-4.885-16.47-13.638-29.965-14.977c-1.223-0.122-2.482-0.184-3.741-0.184C307.278,103.185,296.352,108.748,290.8,112.152
					z"/>
			</g>
			<g>
				<path style="fill:#7FC9C4;" d="M241.061,109.084c-1.741,0-3.35-1.13-3.882-2.883c-0.647-2.145,0.565-4.408,2.709-5.057
					c10.438-3.155,15.891-8.19,21.163-13.059c7.18-6.63,14.604-13.485,32.506-13.854c2.242-0.034,4.093,1.732,4.139,3.972
					c0.046,2.24-1.732,4.093-3.972,4.139c-14.825,0.306-20.273,5.336-27.17,11.704c-5.669,5.234-12.095,11.168-24.317,14.863
					C241.845,109.027,241.449,109.084,241.061,109.084z"/>
			</g>
			<g>
				<path style="fill:#7FC9C4;" d="M105.259,223.258c-0.217,0-0.435-0.001-0.654-0.004c-2.24-0.03-4.032-1.869-4.002-4.109
					c0.029-2.222,1.839-4.003,4.055-4.003c0.018,0,0.036,0,0.054,0.001c16.731,0.215,24.883-9.242,34.37-20.198
					c8.338-9.631,16.961-19.589,31.943-22.54c2.198-0.436,4.331,0.998,4.763,3.196c0.433,2.197-0.997,4.33-3.195,4.763
					c-12.245,2.412-19.596,10.902-27.379,19.891C135.87,211.044,125.293,223.258,105.259,223.258z"/>
			</g>
			<g>
				<path style="fill:#7FC9C4;" d="M125.834,174.131c-1.978,0-3.71-1.448-4.008-3.464c-0.327-2.215,1.202-4.274,3.415-4.605
					c0.344-0.054,19.672-3.2,27.699-18.235c5.911-11.072,4.503-26.054-4.183-44.529c-0.953-2.026-0.082-4.443,1.945-5.396
					c2.027-0.954,4.443-0.083,5.396,1.944c9.851,20.954,11.184,38.404,3.961,51.867c-10.028,18.693-32.671,22.232-33.63,22.373
					C126.23,174.117,126.031,174.131,125.834,174.131z"/>
			</g>
			<g>
				<path style="fill:#7FC9C4;" d="M303.964,84.399c-17.901,10.604-40.565,5.433-40.565,5.433s6.356-22.358,24.262-32.962
					c17.902-10.603,40.566-5.432,40.566-5.432S321.868,73.799,303.964,84.399z"/>
				<path style="fill:#FFFFFF;" d="M276.674,95.149c-8.114,0-13.934-1.308-14.178-1.362c-1.085-0.248-2.021-0.931-2.588-1.888
					c-0.566-0.958-0.716-2.105-0.411-3.176c0.277-0.977,7.018-24.045,26.096-35.344c10.13-5.999,21.556-7.259,29.357-7.259
					c8.115,0,13.935,1.308,14.179,1.362c1.085,0.248,2.02,0.931,2.588,1.888c0.566,0.957,0.715,2.106,0.411,3.177
					c-0.277,0.976-7.021,24.046-26.097,35.342C295.901,93.89,284.476,95.149,276.674,95.149z M268.871,86.59
					c2.084,0.239,4.766,0.447,7.803,0.447c6.787,0,16.674-1.063,25.223-6.127c11.674-6.912,18.12-19.572,20.847-26.232
					c-2.082-0.238-4.761-0.445-7.793-0.445c-6.787,0-16.674,1.063-25.224,6.127C278.002,67.304,271.581,79.942,268.871,86.59z"/>
			</g>
			<g>
				<path style="fill:#7FC9C4;" d="M142.519,107.708c3-23.154,23.239-39.612,23.239-39.612s15.369,21.074,12.367,44.229
					c-3.003,23.155-23.241,39.614-23.241,39.614S139.514,130.862,142.519,107.708z"/>
				<path style="fill:#FFFFFF;" d="M154.883,155.995c-0.173,0-0.348-0.011-0.521-0.033c-1.104-0.143-2.1-0.733-2.755-1.633
					c-0.667-0.914-16.286-22.666-13.109-47.144c3.172-24.477,23.824-41.523,24.701-42.237c0.864-0.702,1.978-1.021,3.081-0.875
					c1.104,0.143,2.1,0.733,2.755,1.632c0.667,0.914,16.286,22.663,13.112,47.142c-3.175,24.478-23.827,41.525-24.704,42.239
					C156.715,155.678,155.81,155.995,154.883,155.995z M164.942,74.381c-5.594,5.6-16.373,18.202-18.401,33.848
					c-2.031,15.646,5.175,30.581,9.157,37.425c5.596-5.602,16.375-18.204,18.404-33.85C176.13,96.158,168.924,81.225,164.942,74.381
					z"/>
			</g>
			<g>
				<path style="fill:#7FC9C4;" d="M109.017,300.171c-0.375,0-0.757-0.053-1.136-0.164c-2.15-0.625-3.385-2.875-2.761-5.025l0,0
					c0.054-0.186,5.332-18.756,2.842-39.801c-3.257-27.536-17.731-46.247-43.02-55.614c-2.101-0.777-3.173-3.111-2.395-5.212
					c0.778-2.101,3.11-3.174,5.212-2.395c28.063,10.393,44.76,32.015,48.289,62.525c2.618,22.637-2.903,41.951-3.14,42.762
					C112.393,299.021,110.773,300.171,109.017,300.171z"/>
			</g>
			<g>
				<path style="fill:#7FC9C4;" d="M100.005,222.654c-1.417,0-2.794-0.744-3.539-2.068c-17.011-30.241-2.617-64.631-1.996-66.079
					c0.883-2.06,3.27-3.013,5.326-2.131c2.058,0.882,3.012,3.266,2.131,5.324c-0.19,0.449-13.376,32.268,1.608,58.909
					c1.099,1.952,0.406,4.425-1.546,5.523C101.361,222.486,100.678,222.654,100.005,222.654z"/>
			</g>
			<g>
				<path style="fill:#7FC9C4;" d="M185.33,393.157c-1.587,0-3.095-0.938-3.745-2.494c-0.136-0.322-8.326-19.527-24.877-36.545
					c-21.851-22.467-47.311-30.744-75.677-24.596c-2.19,0.477-4.349-0.916-4.823-3.105c-0.474-2.189,0.916-4.35,3.106-4.824
					c30.924-6.699,59.761,2.656,83.391,27.055c17.607,18.182,26.018,38.053,26.367,38.891c0.863,2.066-0.113,4.441-2.181,5.305
					C186.38,393.058,185.85,393.157,185.33,393.157z"/>
			</g>
			<g>
				<path style="fill:#7FC9C4;" d="M152.276,348.241c-0.855,0-1.715-0.27-2.449-0.826c-19.425-14.736-28.104-42.145-20.636-65.172
					c0.691-2.131,2.978-3.297,5.109-2.607c2.131,0.691,3.298,2.979,2.607,5.111c-6.438,19.85,1.058,43.488,17.822,56.207
					c1.785,1.353,2.134,3.896,0.78,5.682C154.713,347.689,153.501,348.241,152.276,348.241z"/>
			</g>
			<g>
				<path style="fill:#7FC9C4;" d="M130.901,145.725c-9.417,29.101-39.428,45.445-39.428,45.445s-14.742-30.827-5.322-59.93
					c9.418-29.102,39.429-45.447,39.429-45.447S140.322,116.624,130.901,145.725z"/>
				<path style="fill:#FFFFFF;" d="M91.474,195.227c-0.42,0-0.841-0.065-1.249-0.197c-1.058-0.343-1.93-1.105-2.41-2.109
					c-0.631-1.318-15.328-32.635-5.522-62.929c9.804-30.293,40.064-47.06,41.348-47.76c0.977-0.532,2.131-0.64,3.189-0.297
					c1.059,0.343,1.93,1.105,2.41,2.109c0.63,1.318,15.327,32.639,5.521,62.93c-9.802,30.292-40.063,47.06-41.347,47.759
					C92.813,195.06,92.145,195.227,91.474,195.227z M123.651,91.754c-8.134,5.387-26.812,19.64-33.64,40.735
					c-6.828,21.096-0.045,43.586,3.393,52.721c8.137-5.389,26.813-19.641,33.639-40.734
					C133.871,123.382,127.088,100.889,123.651,91.754z"/>
			</g>
			<g>
				<path style="fill:#7FC9C4;" d="M56.556,210.297c-15.612-7.659-22.375-25.872-22.375-25.872s18.542-5.794,34.154,1.866
					c15.612,7.661,22.375,25.874,22.375,25.874S72.165,217.959,56.556,210.297z"/>
				<path style="fill:#FFFFFF;" d="M75.235,218.32c-7.656,0-14.542-1.474-20.467-4.382c-16.869-8.276-24.091-27.296-24.39-28.102
					c-0.388-1.043-0.329-2.2,0.161-3.199c0.49-0.999,1.37-1.752,2.432-2.085c0.299-0.093,7.419-2.284,16.686-2.284
					c7.655,0,14.541,1.475,20.465,4.381c16.87,8.279,24.091,27.298,24.39,28.104c0.388,1.043,0.33,2.2-0.161,3.199
					c-0.49,0.999-1.369,1.753-2.431,2.084C91.621,216.13,84.501,218.32,75.235,218.32z M39.962,187.258
					c2.853,5.439,8.849,14.722,18.379,19.398c4.804,2.358,10.487,3.554,16.893,3.554c3.8,0,7.18-0.424,9.695-0.872
					c-2.852-5.439-8.849-14.726-18.382-19.404c-4.803-2.357-10.486-3.552-16.892-3.552
					C45.879,186.381,42.489,186.808,39.962,187.258z"/>
			</g>
			<g>
				<path style="fill:#7FC9C4;" d="M157.688,271.792c-5.695,21.096-26.534,33.814-26.534,33.814s-11.604-21.479-5.907-42.576
					c5.698-21.099,26.535-33.817,26.535-33.817S163.387,250.693,157.688,271.792z"/>
				<path style="fill:#FFFFFF;" d="M131.153,309.663c-0.354,0-0.709-0.047-1.058-0.141c-1.074-0.291-1.982-1.008-2.511-1.988
					c-0.505-0.936-12.304-23.16-6.254-45.561c6.049-22.403,27.43-35.669,28.337-36.223c0.95-0.58,2.096-0.745,3.171-0.454
					c1.074,0.29,1.982,1.009,2.511,1.988c0.505,0.934,12.305,23.162,6.253,45.563c-6.047,22.4-27.429,35.666-28.337,36.219
					C132.624,309.46,131.892,309.663,131.153,309.663z M150.123,235.352c-5.94,4.572-17.188,14.765-20.961,28.734
					c-3.788,14.029,0.804,28.461,3.642,35.387c5.941-4.572,17.196-14.766,20.968-28.74
					C157.545,256.765,152.956,242.297,150.123,235.352z"/>
			</g>
			<g>
				<path style="fill:#7FC9C4;" d="M101.325,352.237c-21.831,0.934-40.244-15.1-40.244-15.1s16.979-17.543,38.812-18.473
					c21.834-0.932,40.245,15.1,40.245,15.1S123.158,351.31,101.325,352.237z"/>
				<path style="fill:#FFFFFF;" d="M99.482,356.333c-22.277,0-40.307-15.477-41.064-16.137c-0.839-0.73-1.341-1.775-1.389-2.887
					c-0.047-1.111,0.364-2.193,1.138-2.992c0.739-0.766,18.371-18.717,41.554-19.705c23.175-0.973,42.302,15.416,43.082,16.094
					c0.839,0.73,1.341,1.773,1.389,2.887c0.047,1.111-0.364,2.193-1.138,2.994c-0.739,0.764-18.373,18.717-41.556,19.703
					C100.824,356.319,100.15,356.333,99.482,356.333z M67.427,336.86c6.148,4.287,19.244,11.947,33.725,11.324
					c14.457-0.613,26.867-9.354,32.634-14.148c-6.151-4.287-19.243-11.941-33.719-11.318
					C85.549,323.335,73.172,332.067,67.427,336.86z"/>
			</g>
			<g>
				<g>
					<path style="fill:#7FC9C4;" d="M234.114,173.349c-25.813-16.41-34.113-49.56-34.113-49.56s33.539-6.544,59.351,9.87
						c25.811,16.413,34.112,49.564,34.112,49.564S259.923,189.765,234.114,173.349z"/>
					<path style="fill:#FFFFFF;" d="M277.27,188.565c-12.222,0-30.007-2.046-45.333-11.794
						c-26.867-17.082-35.515-50.58-35.87-51.997c-0.27-1.08-0.085-2.223,0.512-3.162c0.597-0.939,1.554-1.591,2.645-1.805
						c0.285-0.056,7.099-1.362,16.975-1.362c12.22,0,30.003,2.045,45.331,11.792c26.867,17.084,35.515,50.582,35.869,52
						c0.27,1.079,0.086,2.223-0.512,3.162c-0.598,0.939-1.554,1.591-2.646,1.805C293.955,187.259,287.142,188.565,277.27,188.565z
						 M205.285,127.142c3.172,9.22,12.288,30.885,31.005,42.785c13.68,8.7,29.835,10.526,40.98,10.526
						c4.427,0,8.203-0.288,10.91-0.583c-3.172-9.221-12.287-30.886-31.005-42.788c-13.679-8.699-29.833-10.524-40.976-10.524
						C211.77,126.558,207.993,126.846,205.285,127.142z"/>
				</g>
				<g>
					<g>
						<path style="fill:#CAF9F4;" d="M206.894,128.218c9.724,13.895,26.66,31.488,67.808,39.774
							C274.702,167.992,223.831,147.689,206.894,128.218z"/>
					</g>
					<g>
						<path style="fill:#CAF9F4;" d="M225.888,143.643c0,0,23.436,8.822,35.153,4.243c-15.353,6.734-27.476,2.222-27.476,2.222
							L225.888,143.643z"/>
					</g>
				</g>
			</g>
			<g>
				<g>
					<path style="fill:#CAF9F4;" d="M94.797,175.521c11.402-12.287,24.877-32.314,24.318-73.796
						C119.115,101.726,110.086,155.105,94.797,175.521z"/>
				</g>
				<g>
					<path style="fill:#CAF9F4;" d="M105.748,153.958c0,0,3.646-24.479-3.217-34.849c9.702,13.435,7.865,26.086,7.865,26.086
						L105.748,153.958z"/>
				</g>
			</g>
			<g>
				<g>
					<path style="fill:#7FC9C4;" d="M178.943,197.013c-19.58,15.635-47.472,13.251-47.472,13.251s3.849-27.726,23.432-43.361
						c19.581-15.634,47.472-13.25,47.472-13.25S198.524,181.382,178.943,197.013z"/>
					<path style="fill:#FFFFFF;" d="M135.578,214.45c-2.727,0-4.383-0.139-4.452-0.145c-1.109-0.095-2.13-0.642-2.824-1.511
						c-0.694-0.869-1.001-1.986-0.848-3.089c0.167-1.197,4.308-29.518,24.919-45.973c16.127-12.877,37.469-14.268,45.895-14.268
						c2.727,0,4.383,0.14,4.453,0.145c1.108,0.095,2.129,0.641,2.824,1.511c0.694,0.869,1,1.986,0.848,3.088
						c-0.166,1.198-4.31,29.521-24.918,45.973C165.347,213.061,144.005,214.45,135.578,214.45z M197.449,157.583
						c-8.061,0.091-26.377,1.6-40.016,12.489c-13.558,10.824-19.095,28.134-21.037,36.261c8.061-0.09,26.377-1.6,40.015-12.49
						C189.968,183.021,195.506,165.711,197.449,157.583z"/>
				</g>
				<g>
					<g>
						<path style="fill:#CAF9F4;" d="M140.089,203.286c12.886-3.723,30.384-11.897,47.108-40.572
							C187.197,162.714,158.993,195.591,140.089,203.286z"/>
					</g>
					<g>
						<path style="fill:#CAF9F4;" d="M156.492,193.017c0,0,12.596-15.281,12.165-25.222c1.112,13.213-5.365,21.13-5.365,21.13
							L156.492,193.017z"/>
					</g>
				</g>
			</g>
			<g>
				<g>
					<path style="fill:#7FC9C4;" d="M94.916,244.286c15.181,19.934,12.158,47.764,12.158,47.764s-27.63-4.484-42.812-24.421
						c-15.18-19.934-12.157-47.763-12.157-47.763S79.739,224.351,94.916,244.286z"/>
					<path style="fill:#FFFFFF;" d="M111.354,288.04c-0.063,2.726-0.239,4.379-0.247,4.447c-0.12,1.107-0.69,2.115-1.575,2.789
						c-0.885,0.675-2.009,0.955-3.107,0.777c-1.193-0.194-29.411-4.984-45.389-25.968c-12.503-16.418-13.404-37.786-13.21-46.21
						c0.063-2.726,0.24-4.379,0.248-4.448c0.12-1.106,0.689-2.114,1.575-2.788c0.885-0.674,2.009-0.955,3.107-0.777
						c1.194,0.193,29.415,4.986,45.389,25.967C110.648,258.246,111.547,279.615,111.354,288.04z M55.922,224.88
						c-0.094,8.061,0.994,26.407,11.567,40.292c10.51,13.803,27.688,19.735,35.768,21.863c0.095-8.061-0.994-26.407-11.568-40.291
						C81.182,232.942,64.003,227.009,55.922,224.88z"/>
				</g>
				<g>
					<g>
						<path style="fill:#CAF9F4;" d="M100.296,283.273c-3.426-12.969-11.197-30.648-39.48-48.027
							C60.816,235.247,93.037,264.198,100.296,283.273z"/>
					</g>
					<g>
						<path style="fill:#CAF9F4;" d="M90.406,266.64c0,0-14.988-12.943-24.936-12.741c13.235-0.809,21.001,5.848,21.001,5.848
							L90.406,266.64z"/>
					</g>
				</g>
			</g>
			<g>
				<g>
					<path style="fill:#CAF9F4;" d="M130.975,334.317c-11.336-4.377-28.438-8.065-56.212,3.459
						C74.763,337.776,113.122,329.511,130.975,334.317z"/>
				</g>
				<g>
					<path style="fill:#CAF9F4;" d="M113.516,332.737c0,0-17.459,4.123-22.594,11.531c6.436-10.141,15.446-12.305,15.446-12.305
						L113.516,332.737z"/>
				</g>
			</g>
			<g>
				<g>
					<path style="fill:#CAF9F4;" d="M272.271,84.678c10.726-2.107,25.51-7.502,41.12-29.593
						C313.392,55.085,288.163,79.773,272.271,84.678z"/>
				</g>
				<g>
					<path style="fill:#CAF9F4;" d="M286.315,77.505c0,0,11.31-11.511,11.666-19.61c-0.034,10.804-5.854,16.771-5.854,16.771
						L286.315,77.505z"/>
				</g>
			</g>
			<g>
				<g>
					<path style="fill:#CAF9F4;" d="M158.501,139.142c-4.149-11.172-7.554-27.991,4.094-55.088
						C162.595,84.054,154.01,121.572,158.501,139.142z"/>
				</g>
				<g>
					<path style="fill:#CAF9F4;" d="M157.171,121.999c0,0,4.262-17.071,11.59-22.017c-10.026,6.187-12.26,14.996-12.26,14.996
						L157.171,121.999z"/>
				</g>
			</g>
			<g>
				<g>
					<path style="fill:#CAF9F4;" d="M217.809,92.126c7.195-12.065,20.126-27.619,53.617-36.942
						C271.426,55.184,230.627,75.021,217.809,92.126z"/>
				</g>
				<g>
					<path style="fill:#CAF9F4;" d="M232.569,78.238c0,0,18.829-8.699,28.785-5.623c-13.091-4.638-22.831-0.18-22.831-0.18
						L232.569,78.238z"/>
				</g>
			</g>
			<g>
				<g>
					<path style="fill:#CAF9F4;" d="M78.376,207.106c-4.874-6.182-13.189-13.887-32.476-16.636
						C45.9,190.471,70.012,198.531,78.376,207.106z"/>
				</g>
				<g>
					<path style="fill:#CAF9F4;" d="M69.165,200.461c0,0-11.094-3.468-16.402-1.035c6.937-3.527,12.673-1.758,12.673-1.758
						L69.165,200.461z"/>
				</g>
			</g>
			<g>
				<g>
					<path style="fill:#CAF9F4;" d="M296.601,111.922c10.429-3.428,26.03-5.975,50.567,5.695
						C347.168,117.617,312.931,108.402,296.601,111.922z"/>
				</g>
				<g>
					<path style="fill:#CAF9F4;" d="M312.427,111.297c0,0,15.566,4.52,19.862,11.439c-5.344-9.447-13.376-11.811-13.376-11.811
						L312.427,111.297z"/>
				</g>
			</g>
			<g>
				<g>
					<path style="fill:#CAF9F4;" d="M134.496,292.894c-1.638-10.855-1.542-26.664,14.063-48.906
						C148.558,243.987,133.753,276.204,134.496,292.894z"/>
				</g>
				<g>
					<path style="fill:#CAF9F4;" d="M136.523,277.185c0,0,7.056-14.592,14.597-17.672c-10.208,3.689-13.879,11.215-13.879,11.215
						L136.523,277.185z"/>
				</g>
			</g>
		</g>
	</g>
</g>
</svg>
